<svg width="300" height="300" viewBox="0 0 300 300" fill="none" xmlns="http://www.w3.org/2000/svg">
<rect width="300" height="300" fill="white"/>
<mask id="mask0_148_9" style="mask-type:luminance" maskUnits="userSpaceOnUse" x="0" y="0" width="300" height="300">
<path d="M300 0H0V300H300V0Z" fill="white"/>
</mask>
<g mask="url(#mask0_148_9)">
<mask id="mask1_148_9" style="mask-type:luminance" maskUnits="userSpaceOnUse" x="-29" y="-91" width="358" height="502">
<path d="M-28.7631 -90.6345H328.763V410.369H-28.7631V-90.6345Z" fill="white"/>
</mask>
<g mask="url(#mask1_148_9)">
<path d="M92.2481 195.33L60.7614 181.662L65.9055 163.036L90.1846 172.433L92.2481 195.33Z" fill="#F7E055"/>
<path d="M149.51 148.808L90.0738 172.611L65.9049 163.036L127.205 139.194L149.51 148.808Z" fill="#F7DB40"/>
<path d="M155.096 168.509L92.2482 195.33L90.082 172.583L149.51 148.809L155.096 168.509Z" fill="#F1B640"/>
<g opacity="0.5">
<path d="M84.2559 170.306L88.3281 154.315L84.7272 155.716L81.3088 169.139L84.2559 170.306Z" fill="white"/>
</g>
<g opacity="0.5">
<path d="M90.0732 172.611L98.0554 169.415L103.392 148.456L91.9827 152.894L87.2468 171.492L90.0732 172.611Z" fill="white"/>
</g>
</g>
<mask id="mask2_148_9" style="mask-type:luminance" maskUnits="userSpaceOnUse" x="-29" y="-91" width="358" height="503">
<path d="M-28.7631 -90.0018H328.763V411.001H-28.7631V-90.0018Z" fill="white"/>
</mask>
<g mask="url(#mask2_148_9)">
<path d="M134.163 205.161L102.676 191.492L107.82 172.867L132.099 182.264L134.163 205.161Z" fill="#F7E055"/>
<path d="M191.424 158.639L131.987 182.442L107.819 172.867L169.119 149.025L191.424 158.639Z" fill="#F7DB40"/>
<path d="M197.01 178.339L134.162 205.161L131.996 182.413L191.423 158.639L197.01 178.339Z" fill="#F1B640"/>
<g opacity="0.5">
<path d="M126.17 180.137L130.242 164.146L126.641 165.546L123.223 178.97L126.17 180.137Z" fill="white"/>
</g>
<g opacity="0.5">
<path d="M131.988 182.442L139.97 179.245L145.307 158.286L133.897 162.724L129.161 181.322L131.988 182.442Z" fill="white"/>
</g>
<g opacity="0.1">
<path d="M106.851 167.914L102.676 191.493L107.819 172.867L114.749 170.029L108.515 165.861L106.851 167.914Z" fill="#221714"/>
</g>
</g>
<mask id="mask3_148_9" style="mask-type:luminance" maskUnits="userSpaceOnUse" x="-29" y="-90" width="358" height="502">
<path d="M-28.7631 -89.8129H328.763V411.19H-28.7631V-89.8129Z" fill="white"/>
</mask>
<g mask="url(#mask3_148_9)">
<path d="M176.095 214.536L144.608 200.867L149.752 182.242L174.031 191.639L176.095 214.536Z" fill="#F7E055"/>
<path d="M233.357 168.014L173.92 191.817L149.751 182.242L211.051 158.4L233.357 168.014Z" fill="#F7DB40"/>
<path d="M238.943 187.714L176.095 214.536L173.929 191.788L233.357 168.014L238.943 187.714Z" fill="#F1B640"/>
<g opacity="0.5">
<path d="M168.103 189.512L172.175 173.521L168.574 174.921L165.156 188.345L168.103 189.512Z" fill="white"/>
</g>
<g opacity="0.5">
<path d="M173.92 191.817L181.903 188.62L187.239 167.661L175.83 172.099L171.094 190.697L173.92 191.817Z" fill="white"/>
</g>
<g opacity="0.1">
<path d="M146.803 179.137L144.608 200.923L149.752 182.297L156.68 179.458L150.448 175.291L146.803 179.137Z" fill="#221714"/>
</g>
</g>
<mask id="mask4_148_9" style="mask-type:luminance" maskUnits="userSpaceOnUse" x="-29" y="-92" width="358" height="502">
<path d="M-28.7631 -91.655H328.763V409.348H-28.7631V-91.655Z" fill="white"/>
</mask>
<g mask="url(#mask4_148_9)">
<path d="M191.672 175.433L223.159 161.765L218.014 143.139L193.735 152.536L191.672 175.433Z" fill="#F1B640"/>
<path d="M134.409 128.911L193.846 152.714L218.015 143.139L156.714 119.297L134.409 128.911Z" fill="#F7DB40"/>
<path d="M128.825 148.612L191.672 175.433L193.837 152.686L134.41 128.912L128.825 148.612Z" fill="#EBD23D"/>
<g opacity="0.5">
<path d="M202.611 149.242L199.193 135.818L195.592 134.417L199.664 150.409L202.611 149.242Z" fill="white"/>
</g>
<g opacity="0.5">
<path d="M193.846 152.714L196.673 151.594L191.937 132.997L180.527 128.559L185.864 149.518L193.846 152.714Z" fill="white"/>
</g>
</g>
<mask id="mask5_148_9" style="mask-type:luminance" maskUnits="userSpaceOnUse" x="-29" y="-93" width="358" height="502">
<path d="M-28.7631 -92.1722H328.763V408.831H-28.7631V-92.1722Z" fill="white"/>
</mask>
<g mask="url(#mask5_148_9)">
<path d="M149.91 184.114L181.396 170.446L176.252 151.82L151.973 161.218L149.91 184.114Z" fill="#F1B640"/>
<path d="M92.6477 137.592L152.084 161.395L176.253 151.82L114.953 127.978L92.6477 137.592Z" fill="#F7DB40"/>
<path d="M87.0614 157.292L149.908 184.114L152.074 161.366L92.6465 137.592L87.0614 157.292Z" fill="#EBD33D"/>
<g opacity="0.5">
<path d="M160.848 157.923L157.431 144.5L153.83 143.099L157.901 159.09L160.848 157.923Z" fill="white"/>
</g>
<g opacity="0.5">
<path d="M152.084 161.395L154.91 160.276L150.174 141.678L138.765 137.24L144.102 158.199L152.084 161.395Z" fill="white"/>
</g>
</g>
<mask id="mask6_148_9" style="mask-type:luminance" maskUnits="userSpaceOnUse" x="-29" y="-88" width="358" height="502">
<path d="M-28.7631 -87.8394H328.763V413.164H-28.7631V-87.8394Z" fill="white"/>
</mask>
<g mask="url(#mask6_148_9)">
<path d="M131.951 164.82L100.464 151.151L105.608 132.526L129.888 141.923L131.951 164.82Z" fill="#F7E055"/>
<path d="M189.213 118.298L129.776 142.101L105.608 132.526L166.907 108.684L189.213 118.298Z" fill="#F7DB40"/>
<path d="M194.799 137.998L131.951 164.82L129.785 142.072L189.212 118.298L194.799 137.998Z" fill="#F1B640"/>
<g opacity="0.5">
<path d="M123.777 139.724L127.808 123.891L124.207 125.292L120.83 138.556L123.777 139.724Z" fill="white"/>
</g>
<g opacity="0.5">
<path d="M129.776 142.101L137.535 138.994L142.872 118.033L131.463 122.47L126.768 140.909L129.776 142.101Z" fill="white"/>
</g>
</g>
<g opacity="0.318848">
<path d="M99.4604 113.952C99.4604 113.952 97.4175 117.874 98.1113 120.246C98.805 122.618 102.639 124.821 102.639 124.821C102.639 124.821 98.7173 122.778 96.3454 123.472C93.9735 124.165 91.7704 128 91.7704 128C91.7704 128 93.8133 124.078 93.1195 121.706C92.4258 119.334 88.5913 117.131 88.5913 117.131C88.5913 117.131 92.5135 119.174 94.8854 118.48C97.2573 117.786 99.4604 113.952 99.4604 113.952Z" fill="white"/>
</g>
</g>
</svg>
